<svg width="95" height="32" viewBox="0 0 95 32" fill="none" xmlns="http://www.w3.org/2000/svg">
<path fill-rule="evenodd" clip-rule="evenodd" d="M0 10.0032V15.0061H19.3766C21.6288 15.0061 24.5063 13.4333 24.5063 10.8313C24.5063 9.78485 25.0362 9.10223 23.4077 7.71801L20.9292 5.5001C19.5091 4.49951 21.0989 4.49951 22.2918 4.49951H30.4727V15.0061H36.9608V4.49951H45.7052V0H17.3894C13.9443 0 12.2597 2.49832 12.3545 3.79909C12.4498 5.09986 12.7666 6.73641 15.6294 8.70239C18.2408 10.4952 14.3365 10.0032 13.9443 10.0032H0ZM60.0516 0H49.5849L43.7174 15.0065H50.2473L51.3067 12.9053H58.1958L59.2185 15.0065H65.6149L60.0516 0ZM52.7645 9.30275L55.0167 3.79909L57.137 9.30275H52.7645ZM86.2838 10.0032C83.7667 10.0032 83.7667 9.30275 83.7667 9.30275C85.9236 9.30275 87.8359 6.92941 87.8359 4.49951C87.8359 2.06961 84.6941 0 82.1758 0H68.0944V15.0065H75.2495V10.0036C75.2495 10.0036 78.2961 12.7052 79.8859 13.8058C81.4762 14.9065 81.6082 15.0065 83.7661 15.0065H94.9979V10.0036C94.999 10.0032 88.801 10.0032 86.2838 10.0032ZM79.7916 6.50109H75.2505V3.79909H79.7916C81.8737 3.79909 82.2339 6.50109 79.7916 6.50109ZM0 16.9073H7.3201L9.17487 21.911L10.8972 16.9073H18.5817L20.569 21.911L22.5567 16.9073H28.9159L23.0861 31.9173H17.2569L14.7025 24.8123L11.8245 31.9173H5.86278L0 16.9073ZM43.9389 16.9939H33.4722L27.6052 32H34.1346L35.1945 29.8992H42.0842L43.1068 32H49.5037L43.9389 16.9939ZM36.6523 26.2962L38.9046 20.7926L41.0243 26.2962H36.6523ZM86.4158 21.4107C85.2245 21.4107 83.9253 21.5159 85.346 22.5161L87.825 24.7344C89.453 26.1186 89.4268 26.6957 89.4268 27.7429C89.4268 30.3445 86.0189 31.9173 83.7667 31.9173L68.1116 31.9968C65.9547 31.9968 65.8228 31.8972 64.2324 30.7965C62.6432 29.6959 59.5955 26.9939 59.5955 26.9939V31.9968H52.4414V16.9907H66.5229C69.0401 16.9907 72.183 19.0607 72.183 21.4902C72.183 23.9205 70.2706 26.2935 68.1127 26.2935C68.1127 26.2935 69.0615 27.014 70.6513 27.014C72.2417 27.014 78.3631 27.0188 78.3631 27.0188C78.7548 27.0188 82.6586 27.5108 80.0477 25.718C77.1849 23.752 76.8681 22.1163 76.7728 20.8155C76.6775 19.5147 78.1668 16.9076 81.6103 16.9076H95V21.4111H86.4158V21.4107ZM64.1371 23.4914H59.595V20.7894H64.1371C66.2197 20.7894 66.5794 23.4914 64.1371 23.4914Z" fill="#FFC700"/>
</svg>
